<?xml version="1.0" encoding="UTF-8" standalone="no" ?>
<!DOCTYPE svg PUBLIC "-//W3C//DTD SVG 1.1//EN" "http://www.w3.org/Graphics/SVG/1.1/DTD/svg11.dtd">
<svg xmlns="http://www.w3.org/2000/svg" xmlns:xlink="http://www.w3.org/1999/xlink" version="1.1" width="1080" height="1080" viewBox="0 0 1080 1080" xml:space="preserve">
<desc>Created with Fabric.js 5.2.4</desc>
<defs>
</defs>
<g transform="matrix(1 0 0 1 540 540)" id="693bffb9-a82a-437e-95a5-e71dd5dcaa59"  >
<rect style="stroke: none; stroke-width: 1; stroke-dasharray: none; stroke-linecap: butt; stroke-dashoffset: 0; stroke-linejoin: miter; stroke-miterlimit: 4; fill: rgb(255,255,255); fill-rule: nonzero; opacity: 1; visibility: hidden;" vector-effect="non-scaling-stroke"  x="-540" y="-540" rx="0" ry="0" width="1080" height="1080" />
</g>
<g transform="matrix(1 0 0 1 540 540)" id="99a0b3b9-36cb-4ed5-81c2-5c9ff4dafd98"  >
</g>
<g transform="matrix(48.77 0 0 48.77 540 558.22)" id="16b2ae44-f35a-4448-b3f8-fd2c2f289e14"  >
<path style="stroke: rgb(0,0,0); stroke-width: 0; stroke-dasharray: none; stroke-linecap: butt; stroke-dashoffset: 0; stroke-linejoin: miter; stroke-miterlimit: 4; fill: rgb(64,189,220); fill-rule: nonzero; opacity: 1;" vector-effect="non-scaling-stroke"  transform=" translate(-12, -12)" d="M 1 14 C 1 16.6888 3.12231 18.8818 5.78311 18.9954 L 19.1996 18.9951 C 21.316 18.8911 23 17.1422 23 15 C 23 12.7909 21.2091 11 19 11 L 18.9293 11.001 C 18.4445 7.60822 15.5268 5 12 5 C 9.20316 5 6.78942 6.64027 5.66806 9.01084 C 3.06139 9.18169 1 11.3501 1 14 Z" stroke-linecap="round" />
</g>
<g transform="matrix(33.33 0 0 33.33 131.18 918.73)" id="primary"  >
<path style="stroke: rgb(0,0,0); stroke-width: 2; stroke-dasharray: none; stroke-linecap: round; stroke-dashoffset: 0; stroke-linejoin: round; stroke-miterlimit: 4; fill: rgb(0,0,0); fill-rule: nonzero; opacity: 1;" vector-effect="non-scaling-stroke"  transform=" translate(-12, -12)" d="M 15 12 C 15 13.65685424949238 13.65685424949238 15 12 15 C 10.34314575050762 15 9 13.65685424949238 9 12 C 9 10.34314575050762 10.34314575050762 9 12 9 C 13.65685424949238 9 15 10.343145750507619 15 12 Z M 20 10 L 19.41 10 C 18.986382570454502 9.998312419350183 18.6097914995947 9.729891124162876 18.47 9.33 L 18.47 9.33 C 18.28764183679428 8.946108782726268 18.36785552594002 8.48889075459554 18.669999999999998 8.19 L 19.08 7.779999999999999 C 19.269312650823096 7.592233400094443 19.37579832434167 7.336637536370557 19.37579832434167 7.069999999999999 C 19.37579832434167 6.803362463629441 19.269312650823096 6.547766599905556 19.08 6.359999999999999 L 17.66 4.93 C 17.472233400094446 4.740687349176904 17.21663753637056 4.634201675658331 16.950000000000003 4.634201675658331 C 16.683362463629443 4.634201675658331 16.427766599905556 4.740687349176904 16.240000000000002 4.93 L 15.830000000000002 5.34 C 15.531109245404464 5.642144474059979 15.073891217273733 5.722358163205721 14.690000000000001 5.54 L 14.690000000000001 5.54 C 14.278736026831469 5.40590217095121 14.000318653506385 5.022573903329718 14 4.59 L 14 4 C 14 3.4477152501692068 13.552284749830793 3 13 3 L 11 3 C 10.447715250169207 3 10 3.4477152501692068 10 4 L 10 4.59 C 9.998312419350183 5.013617429545495 9.729891124162876 5.390208500405301 9.33 5.529999999999999 L 9.33 5.529999999999999 C 8.946108782726268 5.71235816320572 8.488890754595538 5.632144474059978 8.19 5.329999999999999 L 7.779999999999999 4.919999999999999 C 7.592233400094443 4.730687349176902 7.336637536370557 4.624201675658329 7.069999999999999 4.624201675658329 C 6.803362463629441 4.624201675658329 6.547766599905556 4.730687349176902 6.359999999999999 4.919999999999999 L 4.93 6.34 C 4.740687349176904 6.527766599905556 4.63420167565833 6.783362463629442 4.63420167565833 7.05 C 4.63420167565833 7.316637536370558 4.740687349176904 7.572233400094444 4.93 7.76 L 5.34 8.17 C 5.642144474059979 8.468890754595538 5.722358163205721 8.926108782726269 5.54 9.31 L 5.54 9.31 C 5.400208500405301 9.709891124162876 5.023617429545496 9.978312419350184 4.6 9.98 L 4 9.98 C 3.4477152501692068 9.98 3 10.427715250169207 3 10.98 L 3 12.98 C 3 13.532284749830794 3.4477152501692068 13.98 4 13.98 L 4.59 13.98 C 5.013617429545495 13.981687580649817 5.3902085004053 14.250108875837125 5.529999999999999 14.649999999999999 L 5.529999999999999 14.65 C 5.712358163205721 15.033891217273732 5.632144474059978 15.491109245404461 5.329999999999999 15.790000000000001 L 4.919999999999999 16.2 C 4.730687349176903 16.387766599905554 4.62420167565833 16.64336246362944 4.62420167565833 16.909999999999997 C 4.62420167565833 17.176637536370556 4.730687349176903 17.432233400094443 4.919999999999999 17.619999999999997 L 6.329999999999999 19.029999999999998 C 6.517766599905555 19.219312650823095 6.773362463629441 19.32579832434167 7.039999999999999 19.32579832434167 C 7.306637536370557 19.32579832434167 7.562233400094443 19.219312650823095 7.749999999999999 19.029999999999998 L 8.159999999999998 18.619999999999997 C 8.458890754595537 18.31785552594002 8.916108782726267 18.23764183679428 9.299999999999999 18.419999999999998 L 9.299999999999999 18.419999999999998 C 9.699891124162875 18.5597914995947 9.968312419350182 18.9363825704545 9.969999999999999 19.36 L 9.969999999999999 20 C 9.969999999999999 20.552284749830793 10.417715250169206 21 10.969999999999999 21 L 12.969999999999999 21 C 13.522284749830792 21 13.969999999999999 20.552284749830793 13.969999999999999 20 L 13.969999999999999 19.41 C 13.971687580649816 18.986382570454502 14.240108875837123 18.6097914995947 14.639999999999997 18.47 L 14.639999999999999 18.47 C 15.02389121727373 18.28764183679428 15.48110924540446 18.36785552594002 15.78 18.669999999999998 L 16.189999999999998 19.08 C 16.377766599905556 19.269312650823096 16.63336246362944 19.37579832434167 16.9 19.37579832434167 C 17.16663753637056 19.37579832434167 17.42223340009444 19.269312650823096 17.61 19.08 L 19.02 17.669999999999998 C 19.209312650823094 17.482233400094444 19.315798324341667 17.226637536370557 19.315798324341667 16.96 C 19.315798324341667 16.69336246362944 19.209312650823094 16.437766599905554 19.02 16.25 L 18.61 15.84 C 18.30785552594002 15.541109245404462 18.22764183679428 15.083891217273731 18.41 14.7 L 18.41 14.7 C 18.5497914995947 14.300108875837124 18.926382570454503 14.031687580649816 19.35 14.03 L 20 14.03 C 20.552284749830793 14.03 21 13.582284749830793 21 13.03 L 21 11 C 21 10.447715250169207 20.552284749830793 10 20 10 Z" stroke-linecap="round" />
</g>
<g transform="matrix(22.51 0 0 22.51 1032.41 1029.9)" id="1c127345-f02a-408a-ae23-b86f19cd6ef2"  >
<path style="stroke: rgb(0,0,0); stroke-width: 0; stroke-dasharray: none; stroke-linecap: butt; stroke-dashoffset: 0; stroke-linejoin: miter; stroke-miterlimit: 4; fill: rgb(0,0,0); fill-rule: nonzero; opacity: 1;" vector-effect="non-scaling-stroke"  transform=" translate(-18, -18)" d="M 27.989 19.977 C 27.367 19.977 26.764 20.055 26.183 20.19 L 15.811 9.818 C 15.94990553909816 9.225983901382978 16.02102925105497 8.620090392920709 16.023 8.011999999999999 C 16.023000034463056 3.5874850792306177 12.436514886306327 0.0005522360110816749 8.012000000000002 0 C 7.11 0 5.91 0.916 6.909 1.915 L 9.905999999999999 4.912 C 9.905999999999999 4.912 10.905 6.91 8.906999999999998 8.907 C 6.908999999999997 10.904 4.910999999999998 9.905 4.910999999999998 9.905 L 1.915 6.909 C 0.916 5.91 0 7.105 0 8.012 C 0 12.436905415644318 3.5870945843556834 16.024 8.012 16.024 C 8.620090392920712 16.02202925105497 9.22598390138298 15.95090553909816 9.818000000000003 15.812000000000001 L 20.189 26.183 C 20.0492677838227 26.7748910706606 19.977801881409686 27.38084139816249 19.976 27.989000000000004 C 19.97655223601108 32.413514886306324 23.563485079230617 36.000000034463056 27.988 36 C 28.889 36 30.089 35.084 29.09 34.085 L 26.093 31.088 C 26.093 31.088 25.094 29.09 27.092 27.093 C 29.089999999999996 25.096 31.087 26.094 31.087 26.094 L 34.084 29.091 C 35.084 30.09 36 28.895 36 27.989 C 36.000000034463056 23.564485079230618 32.41351488630633 19.977552236011082 27.989000000000004 19.977 z" stroke-linecap="round" />
</g>
</svg>